<svg xmlns="http://www.w3.org/2000/svg" viewBox="0 0 32 32"><path fill="#d62739" style="text-indent:0;text-align:start;line-height:normal;text-transform:none;block-progression:tb;-inkscape-font-specification:Bitstream Vera Sans" d="M7 7c-3.302 0-6 2.698-6 6 0 2.763 1.886 5.091 4.438 5.781A5.987 5.987 0 0 0 5 21c0 3.302 2.698 6 6 6 2.088 0 3.924-1.09 5-2.719C17.076 25.91 18.912 27 21 27c3.302 0 6-2.698 6-6 0-.78-.163-1.533-.438-2.219C29.114 18.091 31 15.763 31 13c0-3.302-2.698-6-6-6a5.994 5.994 0 0 0-4.5 2.031A5.994 5.994 0 0 0 16 7a5.994 5.994 0 0 0-4.5 2.031A5.994 5.994 0 0 0 7 7zm0 2c1.447 0 2.673.765 3.375 1.906A5.996 5.996 0 0 0 10 13c0 .709.116 1.399.344 2.031a5.99 5.99 0 0 0-3.781 1.906C4.553 16.72 3 15.072 3 13c0-2.221 1.779-4 4-4zm9 0c1.447 0 2.673.765 3.375 1.906A5.996 5.996 0 0 0 19 13c0 .733.132 1.443.375 2.094-.029.046-.032.11-.063.156a5.994 5.994 0 0 0-2.718 1.688c-.195.028-.391.062-.594.062-.203 0-.4-.034-.594-.063a5.994 5.994 0 0 0-2.719-1.687c-.03-.045-.033-.11-.062-.156A5.99 5.99 0 0 0 13 13c0-.733-.132-1.443-.375-2.094C13.327 9.766 14.553 9 16 9zm9 0c2.221 0 4 1.779 4 4 0 2.071-1.553 3.72-3.563 3.938a5.99 5.99 0 0 0-3.78-1.907A6.003 6.003 0 0 0 22 13c0-.733-.132-1.443-.375-2.094C22.327 9.766 23.553 9 25 9zm-13.563 8.063c.052.005.106-.008.157 0a5.994 5.994 0 0 0 2.719 1.687c.43.638.687 1.417.687 2.25 0 2.221-1.779 4-4 4a3.985 3.985 0 0 1-3.437-6.031 5.983 5.983 0 0 0 3.875-1.907zm8.97 0c.05-.008.104.005.155 0a5.983 5.983 0 0 0 3.875 1.906A4.01 4.01 0 0 1 25 21c0 2.221-1.779 4-4 4s-4-1.779-4-4c0-.833.258-1.612.688-2.25a5.994 5.994 0 0 0 2.718-1.688z" overflow="visible" font-family="Bitstream Vera Sans"/></svg>